<?xml version="1.0" encoding="UTF-8" standalone="no"?>
<svg
   xmlns:dc="http://purl.org/dc/elements/1.1/"
   xmlns:cc="http://creativecommons.org/ns#"
   xmlns:rdf="http://www.w3.org/1999/02/22-rdf-syntax-ns#"
   xmlns:svg="http://www.w3.org/2000/svg"
   xmlns="http://www.w3.org/2000/svg"
   xmlns:sodipodi="http://sodipodi.sourceforge.net/DTD/sodipodi-0.dtd"
   xmlns:inkscape="http://www.inkscape.org/namespaces/inkscape"
   inkscape:version="1.0 (4035a4fb49, 2020-05-01)"
   inkscape:export-ydpi="192"
   inkscape:export-xdpi="192"
   inkscape:export-filename="C:\Users\hasoh\source\repos\duckonaut.github.io\assets\images\android.png"
   sodipodi:docname="android.svg"
   id="svg4"
   version="1.1"
   viewBox="0 0 128 128">
  <metadata
     id="metadata10">
    <rdf:RDF>
      <cc:Work
         rdf:about="">
        <dc:format>image/svg+xml</dc:format>
        <dc:type
           rdf:resource="http://purl.org/dc/dcmitype/StillImage" />
      </cc:Work>
    </rdf:RDF>
  </metadata>
  <defs
     id="defs8" />
  <sodipodi:namedview
     inkscape:current-layer="svg4"
     inkscape:window-maximized="1"
     inkscape:window-y="1072"
     inkscape:window-x="-8"
     inkscape:cy="64"
     inkscape:cx="64"
     inkscape:zoom="6.640625"
     showgrid="false"
     id="namedview6"
     inkscape:window-height="1017"
     inkscape:window-width="1920"
     inkscape:pageshadow="2"
     inkscape:pageopacity="0"
     guidetolerance="10"
     gridtolerance="10"
     objecttolerance="10"
     borderopacity="1"
     bordercolor="#666666"
     pagecolor="#ffffff" />
  <path
     style="fill:#ffffff"
     id="path2"
     d="M21.005 43.003c-4.053-.002-7.338 3.291-7.339 7.341l.005 30.736a7.338 7.338 0 007.342 7.343 7.33 7.33 0 007.338-7.342V50.34a7.345 7.345 0 00-7.346-7.337m59.193-27.602l5.123-9.355a1.023 1.023 0 00-.401-1.388 1.022 1.022 0 00-1.382.407l-5.175 9.453c-4.354-1.938-9.227-3.024-14.383-3.019-5.142-.005-10.013 1.078-14.349 3.005L44.45 5.075a1.01 1.01 0 00-1.378-.406 1.007 1.007 0 00-.404 1.38l5.125 9.349c-10.07 5.193-16.874 15.083-16.868 26.438l66.118-.008c.002-11.351-6.79-21.221-16.845-26.427M48.942 29.858a2.772 2.772 0 01.003-5.545 2.78 2.78 0 012.775 2.774 2.776 2.776 0 01-2.778 2.771m30.106-.005a2.77 2.77 0 01-2.772-2.771 2.793 2.793 0 012.773-2.778 2.79 2.79 0 012.767 2.779 2.767 2.767 0 01-2.768 2.77M31.195 44.39l.011 47.635a7.822 7.822 0 007.832 7.831l5.333.002.006 16.264c-.001 4.05 3.291 7.342 7.335 7.342 4.056 0 7.342-3.295 7.343-7.347l-.004-16.26 9.909-.003.004 16.263c0 4.047 3.293 7.346 7.338 7.338 4.056.003 7.344-3.292 7.343-7.344l-.005-16.259 5.352-.004a7.835 7.835 0 007.836-7.834l-.009-47.635-65.624.011zm83.134 5.943a7.338 7.338 0 00-7.341-7.339c-4.053-.004-7.337 3.287-7.337 7.342l.006 30.738a7.334 7.334 0 007.339 7.339 7.337 7.337 0 007.338-7.343l-.005-30.737z"
     fill="#A4C439" />
</svg>
