<?xml version="1.0" encoding="UTF-8" standalone="no"?>
<svg
   xmlns:dc="http://purl.org/dc/elements/1.1/"
   xmlns:cc="http://creativecommons.org/ns#"
   xmlns:rdf="http://www.w3.org/1999/02/22-rdf-syntax-ns#"
   xmlns:svg="http://www.w3.org/2000/svg"
   xmlns="http://www.w3.org/2000/svg"
   xmlns:sodipodi="http://sodipodi.sourceforge.net/DTD/sodipodi-0.dtd"
   xmlns:inkscape="http://www.inkscape.org/namespaces/inkscape"
   inkscape:version="1.0 (4035a4fb49, 2020-05-01)"
   sodipodi:docname="twitter-yellow.svg"
   xml:space="preserve"
   style="enable-background:new 0 0 512.002 512.002;"
   viewBox="0 0 512.002 512.002"
   y="0px"
   x="0px"
   id="Layer_1"
   version="1.1"><metadata
   id="metadata39"><rdf:RDF><cc:Work
       rdf:about=""><dc:format>image/svg+xml</dc:format><dc:type
         rdf:resource="http://purl.org/dc/dcmitype/StillImage" /><dc:title></dc:title></cc:Work></rdf:RDF></metadata><defs
   id="defs37" /><sodipodi:namedview
   inkscape:current-layer="Layer_1"
   inkscape:window-maximized="0"
   inkscape:window-y="0"
   inkscape:window-x="0"
   inkscape:cy="256.00101"
   inkscape:cx="256.00101"
   inkscape:zoom="1.6601497"
   showgrid="false"
   id="namedview35"
   inkscape:window-height="1017"
   inkscape:window-width="1581"
   inkscape:pageshadow="2"
   inkscape:pageopacity="0"
   guidetolerance="10"
   gridtolerance="10"
   objecttolerance="10"
   borderopacity="1"
   bordercolor="#666666"
   pagecolor="#ffffff" />
<path
   id="path2"
   d="M500.398,94.784c-8.043,3.567-16.313,6.578-24.763,9.023c10.004-11.314,17.631-24.626,22.287-39.193  c1.044-3.265-0.038-6.839-2.722-8.975c-2.681-2.137-6.405-2.393-9.356-0.644c-17.945,10.643-37.305,18.292-57.605,22.764  c-20.449-19.981-48.222-31.353-76.934-31.353c-60.606,0-109.913,49.306-109.913,109.91c0,4.773,0.302,9.52,0.9,14.201  c-75.206-6.603-145.124-43.568-193.136-102.463c-1.711-2.099-4.347-3.231-7.046-3.014c-2.7,0.211-5.127,1.734-6.491,4.075  c-9.738,16.709-14.886,35.82-14.886,55.265c0,26.484,9.455,51.611,26.158,71.246c-5.079-1.759-10.007-3.957-14.711-6.568  c-2.525-1.406-5.607-1.384-8.116,0.054c-2.51,1.439-4.084,4.084-4.151,6.976c-0.012,0.487-0.012,0.974-0.012,1.468  c0,39.531,21.276,75.122,53.805,94.52c-2.795-0.279-5.587-0.684-8.362-1.214c-2.861-0.547-5.802,0.456-7.731,2.638  c-1.932,2.18-2.572,5.219-1.681,7.994c12.04,37.591,43.039,65.24,80.514,73.67c-31.082,19.468-66.626,29.665-103.939,29.665  c-7.786,0-15.616-0.457-23.279-1.364c-3.807-0.453-7.447,1.795-8.744,5.416c-1.297,3.622,0.078,7.66,3.316,9.736  c47.935,30.735,103.361,46.98,160.284,46.98c111.903,0,181.907-52.769,220.926-97.037c48.657-55.199,76.562-128.261,76.562-200.451  c0-3.016-0.046-6.061-0.139-9.097c19.197-14.463,35.724-31.967,49.173-52.085c2.043-3.055,1.822-7.094-0.545-9.906  C507.7,94.204,503.76,93.294,500.398,94.784z"
   style="fill:#e5be6c;fill-opacity:1" />
<g
   id="g4">
</g>
<g
   id="g6">
</g>
<g
   id="g8">
</g>
<g
   id="g10">
</g>
<g
   id="g12">
</g>
<g
   id="g14">
</g>
<g
   id="g16">
</g>
<g
   id="g18">
</g>
<g
   id="g20">
</g>
<g
   id="g22">
</g>
<g
   id="g24">
</g>
<g
   id="g26">
</g>
<g
   id="g28">
</g>
<g
   id="g30">
</g>
<g
   id="g32">
</g>
</svg>
